PathFileType	4	(X/Y/Z)	KinectSkeleton.trc																																																	
DataRate	CameraRate	NumFrames	NumMarkers	Units	OrigDataRate	OrigDataStartFrame	OrigNumFrames																																													
60	60	11	17	mm	60	1	300																																													
Frame#	Time	Neck			ShoulderMid			R.Shoulder			L.Shoulder			R.Elbow			L.Elbow			R.Wrist			L.Wrist			HipCenter			R.Hip			L.Hip			R.Knee			L.Knee			R.Ankle			L.Ankle			R.Foot			L.Foot		
		X1	Y1	Z1	X2	Y2	Z2	X3	Y3	Z3	X4	Y4	Z4	X5	Y5	Z5	X6	Y6	Z6	X7	Y7	Z7	X8	Y8	Z8	X9	Y9	Z9	X10	Y10	Z10	X11	Y11	Z11	X12	Y12	Z12	X13	Y13	Z13	X14	Y14	Z14	X15	Y15	Z15	X16	Y16	Z16	X17	Y17	Z17
																																																				
1	0.06	-1019.285	283.922	164.038	-1019.285	283.922	164.038	-992.802	231.132	316.548	-1012.159	224.403	-1.26	-986.34	130.944	563.504	-1153.521	29.794	-104.201	-884.271	291.769	448.761	-935.02	30.587	-126.042	-787.599	-163.047	98.379	-794.091	-182.539	173.465	-780.398	-141.43	15.111	-566.306	-484.04	149.727	-516.037	-410.795	-19.777	-600.54	-838.848	66.495	-436.774	-760.725	-69.566	-471.432	-937.741	53.019	-271.183	-823.949	-63.101
2	0.14	-1024.123	280.757	161.235	-1024.123	280.757	161.235	-996.516	228.087	317.066	-1026.512	223.697	-7.988	-991.956	128.307	570.567	-1180.083	32.12	-113.925	-885.214	285.705	446.112	-956.927	38.539	-137.019	-782.448	-174.054	97.047	-787.015	-191.999	174.428	-777.383	-154.154	11.236	-541.911	-490.428	149.609	-496.097	-418.54	-21.223	-582.583	-853.969	71.169	-423.68	-778.627	-67.733	-454.72	-959.013	50.282	-257.168	-850.3	-68.537
3	0.225	-1024.023	280.346	160.868	-1024.023	280.346	160.868	-996.578	227.529	316.616	-1026.373	223.413	-8.286	-992.913	127.196	569.766	-1180.852	33.036	-114.725	-884.836	283.543	445.349	-957.768	38.384	-137.699	-782.562	-174.301	96.867	-787.142	-192.227	174.21	-777.484	-154.423	11.096	-541.827	-490.245	149.559	-496.259	-418.605	-21.224	-581.409	-853.769	71.38	-423.613	-778.469	-67.626	-453.326	-958.439	50.641	-257.161	-850.051	-68.386
4	0.318	-1021.869	279.716	154.008	-1021.869	279.716	154.008	-998.087	226.793	308.649	-1021.589	222.178	-13.472	-1006.949	117.78	555.24	-1188.475	46.897	-120.795	-878.53	274.831	457.888	-967.952	28.816	-141.244	-784.671	-172.116	94.871	-791.435	-190.266	171.226	-777.171	-151.989	10.196	-546.089	-483.854	151.263	-497.601	-413.082	-17.632	-576.508	-844.335	71.726	-426.396	-769.438	-65.56	-449.042	-947.992	55.113	-263.138	-843.97	-63.327
5	0.391	-1020.332	278.215	152.217	-1020.332	278.215	152.217	-993.046	224.233	305.549	-1018.003	218.219	-14.349	-1002.951	116.234	551.405	-1196.948	52.559	-114.777	-872.835	273.731	459.173	-991.616	-5.056	-174.053	-782.038	-171.08	93.131	-788.175	-188.519	169.39	-775.233	-151.74	8.562	-547.182	-483.501	145.717	-499.761	-414.577	-23.02	-571.094	-844.385	72.725	-427.008	-769.531	-68.1	-441.07	-944.079	58.152	-262.629	-839.776	-65.027
6	0.461	-1020.327	278.231	152.244	-1020.327	278.231	152.244	-993.014	224.246	305.574	-1018.018	218.239	-14.325	-1002.798	116.229	551.43	-1196.95	52.552	-114.74	-872.744	273.751	459.147	-991.642	-5.094	-174.077	-782.036	-171.071	93.137	-788.171	-188.511	169.397	-775.233	-151.73	8.567	-547.166	-483.489	145.718	-499.758	-414.57	-23.033	-571.039	-844.381	72.729	-426.999	-769.527	-68.119	-441.001	-944.061	58.157	-262.616	-839.767	-65.054
7	0.526	-1023.786	281.309	158.044	-1023.786	281.309	158.044	-990.988	229.177	310.886	-1029.376	226.228	-9.376	-980.011	115.158	554.325	-1180.966	39.811	-118.873	-859.838	273.281	449.824	-963.86	23.25	-160.157	-777.754	-165.174	102.153	-780.92	-179.517	179.332	-774.244	-149.267	16.565	-537.095	-472.535	152.914	-495.509	-408.348	-22.249	-554.194	-835.618	86.974	-425.804	-764.891	-63.005	-425.441	-936.04	65.49	-263.677	-840.522	-69.07
8	0.588	-1023.51	282.303	160.751	-1023.51	282.303	160.751	-989.103	229.279	313.416	-1031.442	227.741	-7.058	-972.499	114.57	556.866	-1182.234	39.043	-115.138	-853.752	271.827	448.443	-963.882	31.125	-155.004	-777.834	-165.455	102.769	-780.893	-179.95	180.1	-774.442	-149.38	17.013	-534.279	-471.757	154.031	-494.193	-408.005	-22.218	-546.427	-835.747	87.448	-424.861	-765.312	-64.115	-415.766	-934.419	66.609	-262.352	-841.038	-70.393
9	0.645	-1024.98	285.028	164.586	-1024.98	285.028	164.586	-987.204	230.172	317.488	-1033.841	229.208	-4.49	-962.759	116.237	562.951	-1179.62	29.531	-104.45	-843.453	270.963	448.069	-958.305	32.269	-137.74	-777.228	-165.776	103.014	-780.115	-180.658	180.898	-774.027	-149.272	16.644	-529.143	-472.71	155.478	-490.489	-408.753	-22.398	-540.504	-838.773	84.295	-422.715	-768.962	-66.797	-406.674	-935.583	64.714	-258.373	-844.048	-72.829
10	0.706	-1028.881	285.508	167.505	-1028.881	285.508	167.505	-987.728	228.554	320.515	-1034.076	230.979	-3.636	-957.446	114.294	567.351	-1181.6	29.295	-102.146	-829.788	265.584	453.637	-957.585	15.529	-123.339	-764.311	-158.482	97.524	-764.066	-173.99	175.923	-764.584	-141.283	10.583	-506.031	-463.437	149.036	-480.303	-403.49	-32.341	-517.81	-831.932	76.323	-406.766	-765.108	-78.327	-385.515	-931.656	51.425	-242.245	-842.479	-88.471
11	0.786	-1028.884	285.352	168.844	-1028.884	285.352	168.844	-987.376	227.814	321.563	-1034.675	231.755	-2.488	-956.084	112.369	567.713	-1182.789	31.376	-102.743	-829.173	263.711	453.245	-958.729	18.892	-124.195	-764.412	-158.538	97.775	-764.153	-174.137	176.154	-764.699	-141.239	10.856	-503.88	-461.435	147.947	-479.137	-401.726	-33.911	-510.094	-829.899	74.438	-401.999	-762.423	-81.143	-376.239	-927.435	49.239	-236.635	-837.817	-92.318
